<svg width="418" height="108" viewBox="0 36 418 108" fill="none" xmlns="http://www.w3.org/2000/svg">
<path d="M137.766 102.873H166.386V117H122.959V41.9703H137.766V102.873ZM184.751 95.9142C186.6 102.646 191.64 105.995 199.872 105.96C205.174 105.96 209.168 104.181 211.854 100.623L222.998 107.059C217.696 114.698 209.918 118.517 199.663 118.517C190.803 118.517 183.687 115.831 178.315 110.46C172.979 105.088 170.31 98.3385 170.31 90.2111C170.31 82.1536 172.944 75.4215 178.211 70.0149C183.513 64.6083 190.297 61.905 198.564 61.905C206.412 61.905 212.883 64.6257 217.976 70.0672C223.103 75.5087 225.667 82.2233 225.667 90.2111C225.667 91.9901 225.492 93.8911 225.144 95.9142H184.751ZM184.542 85.1882H211.854C211.052 81.5606 209.412 78.8573 206.936 77.0783C204.494 75.2645 201.703 74.3576 198.564 74.3576C194.867 74.3576 191.797 75.3168 189.355 77.2353C186.949 79.1189 185.344 81.7699 184.542 85.1882ZM275.948 63.4223H289.447V114.436C289.447 122.738 286.709 129.051 281.233 133.377C275.791 137.737 269.216 139.917 261.507 139.917C255.717 139.917 250.624 138.801 246.229 136.568C241.834 134.371 238.451 131.127 236.079 126.837L247.904 120.087C250.624 125.075 255.299 127.586 261.926 127.621C266.286 127.621 269.705 126.47 272.181 124.168C274.693 121.901 275.948 118.657 275.948 114.436V108.628C271.867 114.07 266.164 116.791 258.839 116.791C251.27 116.791 244.921 114.14 239.794 108.838C234.701 103.501 232.155 97.013 232.155 89.374C232.155 81.8047 234.719 75.3343 239.846 69.9625C244.974 64.5908 251.305 61.905 258.839 61.905C266.199 61.905 271.902 64.6257 275.948 70.0672V63.4223ZM250.206 99.943C253.031 102.664 256.607 104.024 260.932 104.024C265.292 104.024 268.885 102.646 271.71 99.8907C274.536 97.1351 275.948 93.6295 275.948 89.374C275.948 85.1534 274.536 81.6652 271.71 78.9096C268.885 76.154 265.292 74.7762 260.932 74.7762C256.607 74.7762 253.031 76.154 250.206 78.9096C247.38 81.6652 245.968 85.1534 245.968 89.374C245.968 93.6644 247.38 97.1874 250.206 99.943ZM342.711 63.4223H356.524V117H342.711V110.669C338.56 115.901 332.735 118.517 325.236 118.517C318.085 118.517 311.963 115.779 306.871 110.303C301.778 104.826 299.232 98.1292 299.232 90.2111C299.232 82.2931 301.778 75.5959 306.871 70.1195C311.963 64.6431 318.085 61.905 325.236 61.905C332.735 61.905 338.56 64.5211 342.711 69.7533V63.4223ZM317.23 101.094C320.021 103.92 323.544 105.332 327.799 105.332C332.09 105.332 335.648 103.92 338.473 101.094C341.298 98.2687 342.711 94.6411 342.711 90.2111C342.711 85.7812 341.298 82.1536 338.473 79.3282C335.648 76.5028 332.09 75.0901 327.799 75.0901C323.544 75.0901 320.021 76.5028 317.23 79.3282C314.44 82.1536 313.045 85.7812 313.045 90.2111C313.045 94.6411 314.44 98.2687 317.23 101.094ZM369.081 117V38.7786H382.894V117H369.081Z" fill="white"/>
<path d="M409.997 115.744C408.218 117.523 406.073 118.413 403.562 118.413C401.085 118.413 398.94 117.523 397.126 115.744C395.347 113.93 394.458 111.785 394.458 109.309C394.458 106.797 395.347 104.652 397.126 102.873C398.94 101.059 401.085 100.152 403.562 100.152C406.073 100.152 408.218 101.059 409.997 102.873C411.811 104.652 412.718 106.797 412.718 109.309C412.718 111.785 411.811 113.93 409.997 115.744Z" fill="#51B0FF"/>
<path d="M62.2632 41.9703H69.3266L56.1415 117H49.078L50.7 107.896C44.9097 114.837 37.1486 118.308 27.4167 118.308C19.9172 118.308 13.8828 115.413 9.31331 109.623C4.74386 103.832 3.13932 97.013 4.49969 89.1647C5.99959 80.5839 9.69701 73.939 15.592 69.23C21.4869 64.4862 28.0097 62.1142 35.1604 62.1142C39.7996 62.1142 44.0377 63.213 47.8746 65.4105C51.7464 67.5732 54.6067 70.695 56.4554 74.7762L62.2632 41.9703ZM29.1433 111.454C35.0034 111.454 40.2356 109.57 44.8399 105.803C49.4443 102.036 52.3569 97.3095 53.5777 91.6238L53.787 89.8972C54.7288 83.4093 53.3684 78.2992 49.7059 74.5669C46.0782 70.8346 41.4041 68.9684 35.6836 68.9684C30.1026 68.9684 24.975 70.7997 20.3009 74.4622C15.6268 78.0899 12.7142 83.1651 11.5632 89.6879C10.5516 95.6875 11.7201 100.815 15.0687 105.071C18.4522 109.326 23.1438 111.454 29.1433 111.454ZM91.1763 118.308C83.607 118.308 77.3633 115.709 72.445 110.512C67.5616 105.28 65.8699 98.3385 67.3698 89.6879C68.8697 81.0374 72.881 74.2878 79.4038 69.4393C85.9615 64.5559 93.025 62.1142 100.594 62.1142C107.954 62.1142 114.006 64.7478 118.75 70.0149C123.494 75.2471 125.116 82.1187 123.616 90.6297C122.604 96.6293 120.355 101.774 116.866 106.065C113.378 110.355 109.437 113.477 105.042 115.43C100.647 117.349 96.0248 118.308 91.1763 118.308ZM91.8041 111.454C97.5247 111.454 102.809 109.553 107.658 105.751C112.506 101.949 115.506 96.6642 116.657 89.8972C117.808 83.4093 116.605 78.2992 113.047 74.5669C109.524 70.8346 104.937 68.9684 99.2862 68.9684C93.5657 69.0382 88.2986 70.9392 83.4849 74.6715C78.6713 78.4038 75.6541 83.5837 74.4332 90.2111C73.2822 96.9432 74.4681 102.193 77.9911 105.96C81.549 109.692 86.1534 111.524 91.8041 111.454Z" fill="white"/>
</svg>
